<?xml version="1.0" encoding="iso-8859-1"?>
<!-- Uploaded to: SVG Repo, www.svgrepo.com, Generator: SVG Repo Mixer Tools -->
<svg version="1.1" id="Capa_1" xmlns="http://www.w3.org/2000/svg" xmlns:xlink="http://www.w3.org/1999/xlink"
	 viewBox="0 0 60 60" xml:space="preserve">
<g>
	<g>
		<path d="M59,10H34v2h24v46H2V12h24v-2H1c-0.6,0-1,0.4-1,1v48c0,0.6,0.4,1,1,1h58c0.6,0,1-0.4,1-1V11C60,10.4,59.6,10,59,10z"/>
		<path d="M0,0v2h29v14H7c-0.6,0-1,0.4-1,1v18c0,0.6,0.4,1,1,1h46c0.6,0,1-0.4,1-1V17c0-0.6-0.4-1-1-1H31V2h29V0H0z M52,34H8V18h44
			V34z"/>
		<path d="M39,31h2c1.2,0,2-0.8,2-2v-2c0-1.2-0.8-2-2-2h-2v-2h2v1h2v-1c0-1.2-0.8-2-2-2h-2c-1.2,0-2,0.8-2,2v2c0,1.2,0.8,2,2,2h2v2
			h-2v-1h-2v1C37,30.2,37.8,31,39,31z"/>
		<path d="M28,31h4c1.2,0,2-0.8,2-2v-6c0-1.2-0.8-2-2-2h-4c-0.6,0-1,0.4-1,1v8C27,30.6,27.4,31,28,31z M29,23h3l0.1,6H32h-3V23z"/>
		<path d="M19,28h3v3h2v-9c0-0.6-0.4-1-1-1h-5c-0.6,0-1,0.4-1,1v9h2V28z M22,23v3h-3v-3H22z"/>
		<rect x="46" y="25" width="2" height="2"/>
		<rect x="12" y="25" width="2" height="2"/>
		<path d="M54,40c0-0.6-0.4-1-1-1H7c-0.6,0-1,0.4-1,1v8c0,0.6,0.4,1,1,1h46c0.6,0,1-0.4,1-1V40z M52,47H8v-6h44V47z"/>
		<rect x="6" y="53" width="2" height="2"/>
		<rect x="10" y="53" width="2" height="2"/>
		<rect x="14" y="53" width="2" height="2"/>
		<rect x="44" y="53" width="2" height="2"/>
		<rect x="18" y="53" width="24" height="2"/>
		<rect x="48" y="53" width="2" height="2"/>
		<rect x="52" y="53" width="2" height="2"/>
	</g>
</g>
</svg>