<?xml version="1.0" encoding="utf-8"?><!-- Uploaded to: SVG Repo, www.svgrepo.com, Generator: SVG Repo Mixer Tools -->
<svg width="800px" height="800px" viewBox="0 0 36 36" xmlns="http://www.w3.org/2000/svg" xmlns:xlink="http://www.w3.org/1999/xlink" aria-hidden="true" role="img" class="iconify iconify--twemoji" preserveAspectRatio="xMidYMid meet"><path d="M4 5s0-1 1-1h6s1 0 1 1v2H4V5z"></path><path d="M0 10s0-4 4-4h28s4 0 4 4v18s0 4-4 4H4s-4 0-4-4V10z"></path><circle cx="21" cy="19" r="10"></circle><circle cx="21" cy="19" r="8"></circle><circle cx="21" cy="19" r="5"></circle><circle32.5" cy="9.5" r="1.5"></circle><path d="M12 9.5a1.5 1.5 0 0 1-1.5 1.5h-5a1.5 1.5 0 1 1 0-3h5A1.5 1.5 0 0 1 12 9.5z"></path></svg>