<?xml version="1.0" encoding="utf-8"?><!-- Uploaded to: SVG Repo, www.svgrepo.com, Generator: SVG Repo Mixer Tools -->
<svg width="800px" height="800px" viewBox="0 0 32 32" id="Lager_100" data-name="Lager 100" xmlns="http://www.w3.org/2000/svg">
  <path id="Path_78" data-name="Path 78" d="M30.329,13.721l-2.65-.441a11.922,11.922,0,0,0-1.524-3.653l1.476-2.066a1.983,1.983,0,0,0-.211-2.553l-.428-.428a1.983,1.983,0,0,0-2.553-.211L22.373,5.845A11.922,11.922,0,0,0,18.72,4.321l-.441-2.65A2,2,0,0,0,16.306,0h-.612a2,2,0,0,0-1.973,1.671l-.441,2.65A11.922,11.922,0,0,0,9.627,5.845L7.561,4.369a1.983,1.983,0,0,0-2.553.211l-.428.428a1.983,1.983,0,0,0-.211,2.553L5.845,9.627A11.922,11.922,0,0,0,4.321,13.28l-2.65.441A2,2,0,0,0,0,15.694v.612a2,2,0,0,0,1.671,1.973l2.65.441a11.922,11.922,0,0,0,1.524,3.653L4.369,24.439a1.983,1.983,0,0,0,.211,2.553l.428.428a1.983,1.983,0,0,0,2.553.211l2.066-1.476a11.922,11.922,0,0,0,3.653,1.524l.441,2.65A2,2,0,0,0,15.694,32h.612a2,2,0,0,0,1.973-1.671l.441-2.65a11.922,11.922,0,0,0,3.653-1.524l2.066,1.476a1.983,1.983,0,0,0,2.553-.211l.428-.428a1.983,1.983,0,0,0,.211-2.553l-1.476-2.066a11.922,11.922,0,0,0,1.524-3.653l2.65-.441A2,2,0,0,0,32,16.306v-.612A2,2,0,0,0,30.329,13.721ZM16,22a6,6,0,1,1,6-6A6,6,0,0,1,16,22Z" />
</svg>